<svg xmlns="http://www.w3.org/2000/svg" viewBox="0 0 400 300" data-imageid="innovation-c" imageName="Target" class="illustrations_image" style="width: 229px;"><g id="_107_target_outline" data-name="#107_target_outline"><path d="M207.08,232.69V67.46a2.69,2.69,0,0,0-2.45-2.74,2.59,2.59,0,0,0-2.73,2.59V232.69a2.59,2.59,0,0,0,2.59,2.59h0A2.59,2.59,0,0,0,207.08,232.69Z" fill="#093f68"/><path d="M204.49,236.28a3.59,3.59,0,0,1-3.59-3.59V67.31a3.58,3.58,0,0,1,3.78-3.59,3.67,3.67,0,0,1,3.4,3.74V232.69A3.59,3.59,0,0,1,204.49,236.28Zm0-170.56a1.57,1.57,0,0,0-1.59,1.59V232.69a1.59,1.59,0,0,0,3.18,0V67.46a1.69,1.69,0,0,0-1.5-1.74Z" fill="#093f68"/><path d="M156.53,233.47c9-28.33,17.1-53,25.14-76.8a2.68,2.68,0,0,0-1.33-3.33,2.59,2.59,0,0,0-3.53,1.53c-8.07,23.86-16.17,48.62-25.22,77a2.59,2.59,0,0,0,2.47,3.38h0A2.59,2.59,0,0,0,156.53,233.47Z" fill="#093f68"/><path d="M154.06,236.28a3.59,3.59,0,0,1-3.42-4.69c9.08-28.54,17.1-53,25.22-77a3.61,3.61,0,0,1,4.9-2.12,3.71,3.71,0,0,1,1.86,4.56c-8.1,24-16.09,48.36-25.14,76.78h0A3.56,3.56,0,0,1,154.06,236.28Zm25.2-82.17a1.58,1.58,0,0,0-1.5,1.08c-8.12,24-16.13,48.48-25.22,77a1.59,1.59,0,0,0,.24,1.43,1.55,1.55,0,0,0,1.28.65,1.62,1.62,0,0,0,1.52-1.11h0c9-28.44,17-52.85,25.15-76.82a1.59,1.59,0,0,0-1.47-2.24Z" fill="#093f68"/><path d="M254.92,235.28h0a2.6,2.6,0,0,0,2.47-3.38c-9-28.38-17.13-53.11-25.19-76.94a2.65,2.65,0,0,0-2.82-1.83,2.59,2.59,0,0,0-2.12,3.4c8.05,23.83,16.15,48.56,25.18,76.94A2.61,2.61,0,0,0,254.92,235.28Z" fill="#093f68"/><path d="M254.92,236.28a3.58,3.58,0,0,1-3.43-2.51c-9.07-28.49-17.07-52.93-25.18-76.92a3.54,3.54,0,0,1,.35-3,3.58,3.58,0,0,1,2.59-1.67,3.64,3.64,0,0,1,3.9,2.5c8.1,24,16.11,48.44,25.19,77a3.59,3.59,0,0,1-3.42,4.68Zm-25.21-82.17h-.19a1.6,1.6,0,0,0-1.32,2.09c8.12,24,16.12,48.45,25.2,77a1.61,1.61,0,0,0,1.52,1.11,1.59,1.59,0,0,0,1.51-2.08c-9.07-28.5-17.07-52.95-25.18-76.92A1.68,1.68,0,0,0,229.71,154.11Z" fill="#093f68"/><circle cx="204.49" cy="144.42" r="69.16" fill="#68e1fd" class="target-color"/><path d="M204.49,214.59a70.17,70.17,0,1,1,70.16-70.17A70.25,70.25,0,0,1,204.49,214.59Zm0-138.33a68.17,68.17,0,1,0,68.16,68.16A68.24,68.24,0,0,0,204.49,76.26Z" fill="#093f68"/><circle cx="204.49" cy="144.42" r="57.31" fill="#fff"/><path d="M204.49,202.73a58.31,58.31,0,1,1,58.31-58.31A58.37,58.37,0,0,1,204.49,202.73Zm0-114.61a56.31,56.31,0,1,0,56.31,56.3A56.37,56.37,0,0,0,204.49,88.12Z" fill="#093f68"/><circle cx="204.49" cy="144.42" r="42.55" fill="#68e1fd" class="target-color"/><path d="M204.49,188A43.56,43.56,0,1,1,248,144.42,43.61,43.61,0,0,1,204.49,188Zm0-85.11A41.56,41.56,0,1,0,246,144.42,41.6,41.6,0,0,0,204.49,102.87Z" fill="#093f68"/><circle cx="204.49" cy="144.42" r="29.1" fill="#fff"/><path d="M204.49,174.52a30.1,30.1,0,1,1,30.09-30.1A30.13,30.13,0,0,1,204.49,174.52Zm0-58.19a28.1,28.1,0,1,0,28.09,28.09A28.13,28.13,0,0,0,204.49,116.33Z" fill="#093f68"/><circle cx="204.49" cy="144.42" r="16.12" fill="#68e1fd" class="target-color"/><path d="M204.49,161.54a17.12,17.12,0,1,1,17.12-17.12A17.14,17.14,0,0,1,204.49,161.54Zm0-32.24a15.12,15.12,0,1,0,15.12,15.12A15.14,15.14,0,0,0,204.49,129.3Z" fill="#093f68"/><polygon points="142.1 95.12 126.35 102.2 149.24 119.84 165.72 113.4 142.1 95.12" fill="#f56132"/><path d="M149.24,120.84a1.07,1.07,0,0,1-.62-.2L125.74,103a1,1,0,0,1,.2-1.7l15.75-7.08a1,1,0,0,1,1,.12l23.62,18.28a1,1,0,0,1-.25,1.73l-16.48,6.44A1.13,1.13,0,0,1,149.24,120.84Zm-21-18.42,21.12,16.29,14.31-5.59L142,96.28Z" fill="#093f68"/><polygon points="141.76 94.13 147.27 79.7 167.57 99.1 165.72 113.4 141.76 94.13" fill="#f56132"/><path d="M165.72,114.4a1,1,0,0,1-.63-.22l-24-19.27a1,1,0,0,1-.31-1.14l5.51-14.42a1,1,0,0,1,.72-.62A1,1,0,0,1,148,79l20.31,19.4a1,1,0,0,1,.3.85l-1.86,14.3a1,1,0,0,1-.62.8A1,1,0,0,1,165.72,114.4ZM143,93.8l22,17.71,1.56-12-18.86-18Z" fill="#093f68"/><path d="M204.75,147a2.33,2.33,0,0,1-1.44-.51L132.1,89.9a2.33,2.33,0,1,1,2.9-3.64l71.2,56.61a2.33,2.33,0,0,1-1.45,4.15Z" fill="#ffbc0e"/><path d="M204.75,148a3.3,3.3,0,0,1-2.06-.73L131.48,90.68A3.33,3.33,0,0,1,131,86a3.34,3.34,0,0,1,4.67-.54l71.21,56.62a3.33,3.33,0,0,1-2.08,5.93Zm-71.2-61.27a1.33,1.33,0,0,0-.82,2.37l71.2,56.61a1.36,1.36,0,0,0,1.86-.21,1.33,1.33,0,0,0-.21-1.87L134.38,87A1.37,1.37,0,0,0,133.55,86.75Z" fill="#093f68"/></g></svg>