<svg id="Layer_1" data-name="Layer 1" xmlns="http://www.w3.org/2000/svg" viewBox="0 0 400 300" data-imageid="loading-2" imageName="Password" class="illustrations_image" style="width: 229px;"><title>#138_password_twocolour</title><path d="M166.12,74.39c-60.21-3.17-104.6,56.93-82.35,113a73.18,73.18,0,0,0,17.43,26.18c49.33,47.33,155,31.33,187.84,6.66s46.29-99.41,16.83-123C269.2,67.94,220.78,77.27,166.12,74.39Z" fill="#e6e6e6" opacity="0.45"/><polygon points="211.8 204 242.3 240.75 282.97 195.08 250.33 166.42 211.8 204" fill="#f4a28c"/><polygon points="228.31 231.75 276.04 189 331.3 236.08 264.97 280.75 228.31 231.75" fill="#fdb068" class="target-color"/><polygon points="231.97 192.68 291.81 262.68 264.97 280.75 228.31 231.75 232.11 228.5 213.09 205.55 231.97 192.68" opacity="0.08"/><path d="M129.47,158.84s32.19,44.73,62.95,46.44,47.21.17,60-29.71Z" fill="#f4a28c"/><path d="M129.47,158.84s32.19,44.73,62.95,46.44,47.21.17,60-29.71Z" opacity="0.08"/><rect x="138.38" y="31.39" width="89.93" height="161.29" fill="#c9c9c9"/><rect x="145.82" y="49.78" width="74.44" height="113.51" fill="#fff"/><circle cx="183.62" cy="177.82" r="8.8" fill="#fff" opacity="0.56"/><rect x="175.74" y="37.69" width="25.21" height="3.68" opacity="0.12"/><circle cx="166.61" cy="39.93" r="4.11" fill="#fff"/><path d="M158.2,158.44s5.71,10.23-1.25,13.39-18.57-2-18.57-2v-7.54Z" opacity="0.08"/><path d="M156.58,129.21s6.4,14.55-.55,17.72-17.65-2.34-17.65-2.34V137Z" opacity="0.08"/><path d="M156.58,115.67s5.46,11.6-1.5,14.77-16.7.6-16.7.6V123.5Z" opacity="0.08"/><path d="M133.69,98.4s-13.69,18.53,0,22,28.27,4,21.59-11.9S133.69,98.4,133.69,98.4Z" fill="#f4a28c"/><path d="M133.69,117.87s-13.69,18.54,0,22,26.43,4.36,22.52-12.45C153.48,115.65,133.69,117.87,133.69,117.87Z" fill="#f4a28c"/><path d="M133.69,139.09s-13.69,18.54,0,22,24.45,9,25.24-7.82C159.46,141.86,133.69,139.09,133.69,139.09Z" fill="#f4a28c"/><path d="M143.78,105.87,142.56,115a2.19,2.19,0,0,0,1.9,2.46l3,.38a5,5,0,0,0,5.55-3.81l.76-3.09a5,5,0,0,0-3.76-6.12l-3.51-.83A2.2,2.2,0,0,0,143.78,105.87Z" fill="#fff" opacity="0.46"/><path d="M127.81,110.94s-.87,3.75.51,5.59H206.8V95.19Z" opacity="0.08"/><rect x="124.11" y="49.78" width="85.61" height="61.16" fill="#24285b"/><circle cx="183.77" cy="138.59" r="14.64" fill="#ffd200"/><polyline points="178.34 138.71 183.27 144.39 189.9 133.95" fill="none" stroke="#fff" stroke-linecap="round" stroke-linejoin="round" stroke-width="3"/><polygon points="179.62 109.84 183.04 119.85 186.81 109.84 179.62 109.84" fill="#24285b"/><path d="M172.29,67.66H170V62.22a3.36,3.36,0,1,0-6.71,0v5.44h-2.33V62.22a5.69,5.69,0,0,1,11.37,0Z" fill="#fdb068" class="target-color"/><path d="M172.29,67.66H170V62.22a3.36,3.36,0,1,0-6.71,0v5.44h-2.33V62.22a5.69,5.69,0,0,1,11.37,0Z" fill="#fff" opacity="0.46"/><rect x="157.91" y="63.5" width="17.39" height="13.86" fill="#fdb068" class="target-color"/><path d="M168.19,68.54a1.84,1.84,0,1,0-3.08,1.34v3.9h2.52V69.85A1.84,1.84,0,0,0,168.19,68.54Z" fill="#24285b"/><rect x="140.56" y="84.91" width="53.8" height="13.48" fill="#fff"/><rect x="180.54" y="84.91" width="13.83" height="13.48" fill="#ffd200"/><circle cx="146.8" cy="91.66" r="1.8" fill="#24285b"/><circle cx="153.48" cy="91.66" r="1.8" fill="#24285b"/><circle cx="160" cy="91.66" r="1.8" fill="#24285b"/><circle cx="166.68" cy="91.66" r="1.8" fill="#24285b"/><circle cx="173.5" cy="91.66" r="1.8" fill="#24285b"/><path d="M239.67,105.56c-.21-3.42-.34-6.84-.3-9.9.07-6.29-6.08-11.07-12-9-3,1-5.4,3.56-5.4,9,0,10.82,3.39,26.41,5.3,34.33a30,30,0,0,1,.66,10.22c-1.24,11.69-3.21,39.28,5.41,41.12,10,2.13,34.25-1.39,15.27-41.83A93.9,93.9,0,0,1,239.67,105.56Z" fill="#f4a28c"/><path d="M144.15,149.76l-.24,8.06a1.91,1.91,0,0,0,1.87,2l2.61.07a4.41,4.41,0,0,0,4.48-3.82l.38-2.75a4.41,4.41,0,0,0-3.82-5l-3.12-.4A1.92,1.92,0,0,0,144.15,149.76Z" fill="#fff" opacity="0.46"/><path d="M142.88,125.37l-1.22,9.15a2.19,2.19,0,0,0,1.9,2.47l3,.38a5.06,5.06,0,0,0,5.56-3.81l.75-3.09a5.06,5.06,0,0,0-3.76-6.13l-3.51-.82A2.2,2.2,0,0,0,142.88,125.37Z" fill="#fff" opacity="0.46"/></svg>